<svg width="332" height="85" viewBox="0 0 332 85" version="1.1" xmlns="http://www.w3.org/2000/svg" xmlns:xlink="http://www.w3.org/1999/xlink">
<title>Group 2</title>
<desc>Created using Figma</desc>
<g id="Canvas" transform="translate(-177 6020)">
<g id="Group 2">
<g id="Shape">
<use xlink:href="#path0_fill" transform="translate(177.166 -6019.89)" fill="url(#paint0_radial)"/>
</g>
<g id="serenity">
<g id="Group">
<g id="Shape">
<use xlink:href="#path1_fill" transform="translate(247.146 -6002.83)" fill="#FFFFFF"/>
</g>
<g id="Shape">
<use xlink:href="#path2_fill" transform="translate(264.526 -6002.39)" fill="#FFFFFF"/>
</g>
<g id="Shape">
<use xlink:href="#path3_fill" transform="translate(280.506 -6002.39)" fill="#FFFFFF"/>
</g>
<g id="Shape">
<use xlink:href="#path2_fill" transform="translate(298.207 -6002.39)" fill="#FFFFFF"/>
</g>
<g id="Shape">
<use xlink:href="#path4_fill" transform="translate(314.217 -6002.39)" fill="#FFFFFF"/>
</g>
<g id="Shape">
<use xlink:href="#path5_fill" transform="translate(333.347 -6002.39)" fill="#FFFFFF"/>
</g>
<g id="Shape">
<use xlink:href="#path6_fill" transform="translate(338.012 -6002.39)" fill="#FFFFFF"/>
</g>
<g id="Shape">
<use xlink:href="#path7_fill" transform="translate(352.622 -6002.39)" fill="#FFFFFF"/>
</g>
<g id="Shape">
<use xlink:href="#path8_fill" transform="translate(378.838 -6002.39)" fill="#FFFFFF"/>
</g>
<g id="Shape">
<use xlink:href="#path5_fill" transform="translate(393.798 -6002.39)" fill="#FFFFFF"/>
</g>
<g id="Shape">
<use xlink:href="#path4_fill" transform="translate(400.972 -6002.39)" fill="#FFFFFF"/>
</g>
<g id="Shape">
<use xlink:href="#path9_fill" transform="translate(417.769 -6002.39)" fill="#FFFFFF"/>
</g>
<g id="Shape">
<use xlink:href="#path4_fill" transform="translate(437.628 -6002.39)" fill="#FFFFFF"/>
</g>
<g id="Shape">
<use xlink:href="#path10_fill" transform="translate(455.766 -6002.83)" fill="#FFFFFF"/>
</g>
<g id="Shape">
<use xlink:href="#path5_fill" transform="translate(472.563 -6002.39)" fill="#FFFFFF"/>
</g>
<g id="Shape">
<use xlink:href="#path11_fill" transform="translate(477.404 -6002.39)" fill="#FFFFFF"/>
</g>
<g id="Shape">
<use xlink:href="#path12_fill" transform="translate(497.233 -6002.39)" fill="#FFFFFF"/>
</g>
</g>
</g>
<g id="The first blockchain">
<use xlink:href="#path13_fill" transform="translate(247 -5972)" fill="#FFFFFF"/>
</g>
</g>
</g>
<defs>
<radialGradient id="paint0_radial" cx="0.5" cy="0.5" r="0.5" gradientUnits="userSpaceOnUse" gradientTransform="matrix(74.3295 0 0 99.7082 -0.773215 -9.78044)">
<stop offset="0.019802" stop-color="#DA51F9"/>
<stop offset="0.9629" stop-color="#5FA6FB"/>
</radialGradient>
<path id="path0_fill" fill-rule="evenodd" d="M 30.4369 0L 62.4554 29.771L 62.8161 30.0762L 34.2381 82.0161L 33.9052 82.6265L 33.0173 84.2637L 32.1572 82.9316L 0.194214 32.7954L 0 32.4902L 29.0774 1.44287L 30.4369 0ZM 30.7421 2.24707L 30.6034 1.99756L 19.3664 35.4863L 19.3109 35.6255L 36.7629 38.9824L 36.7907 38.9824L 49.2762 34.3765L 30.7421 2.24707ZM 23.0011 48.5547L 19.3942 36.6797L 19.6161 36.7075L 36.2635 39.9258L 36.2635 40.0371L 35.3202 50.6357L 23.0011 48.5547ZM 34.2381 63.0381L 35.2369 51.6899L 23.3618 49.6646L 26.9965 61.6782L 34.2381 63.0381ZM 36.2635 51.8564L 44.4762 49.0542L 44.393 49.3037L 40.3144 60.957L 40.2589 60.9849L 35.3202 62.7881L 36.2635 51.8564ZM 37.3179 39.8706L 36.3468 50.7192L 44.8924 47.8057L 49.2207 35.4868L 37.4011 39.8428L 37.3179 39.8706ZM 29.2439 2.83008L 29.0497 3.38477L 18.2844 35.4033L 18.1734 35.3755L 1.69249 32.1851L 29.2439 2.83008ZM 1.66473 33.2393L 9.98842 46.2798L 10.0162 46.3076L 21.8358 48.333L 18.2289 36.4302L 1.66473 33.2393ZM 18.756 60.0415L 10.7653 47.5005L 22.1687 49.4429L 25.8034 61.4565L 18.8115 60.1523L 18.756 60.0415ZM 26.1919 62.5664L 19.6161 61.3457L 31.408 79.8521L 26.1919 62.5664ZM 32.6843 80.5181L 27.3017 62.7886L 34.1271 64.0649L 34.1271 64.1758L 32.6843 80.5181ZM 35.1814 63.8979L 33.8219 79.3247L 39.8427 62.2056L 35.2647 63.8701L 35.1814 63.8979ZM 36.319 76.106L 35.5421 77.4932L 41.0912 61.7339L 45.0311 60.291L 36.319 76.106ZM 45.7248 58.9595L 45.7803 58.9316L 52.7722 46.1963L 45.697 48.6104L 41.5352 60.4854L 45.7248 58.9595ZM 53.5213 44.8647L 46.141 47.3892L 46.2242 47.1396L 50.4693 35.0425L 50.608 34.9873L 61.0404 31.1582L 53.5213 44.8647ZM 50.1086 33.7666L 50.2473 34.0161L 61.2068 29.9653L 32.6288 3.44043L 50.1086 33.7666Z"/>
<path id="path1_fill" d="M 7.37781 1.69136C 4.11175 1.69136 2.04129 2.44955 2.04129 5.2782C 2.04129 7.11536 3.06194 8.16517 6.67794 8.42762C 11.0521 8.77756 13.0059 10.3523 13.0059 13.735C 13.0059 17.6134 10.0315 19.0715 5.56981 19.0715C 3.93678 19.0715 1.77884 18.7799 0.379097 18.3425L 0.904001 16.6511C 2.04129 17.0594 4.11175 17.3218 5.54065 17.3218C 8.77756 17.3218 10.9938 16.5636 10.9938 13.735C 10.9938 11.927 10.0023 10.4689 6.38633 10.2065C 2.01213 9.88569 0 8.69007 0 5.33652C 0 1.4289 2.85781 0 7.31949 0C 8.92336 0 10.9355 0.291613 12.3644 0.699872L 11.8395 2.39123C 11.023 1.98297 8.86504 1.69136 7.37781 1.69136Z"/>
<path id="path2_fill" d="M 12.5102 0L 12.5102 1.57471L 1.89549 1.57471L 1.89549 7.69859L 9.41911 7.69859L 9.41911 9.2733L 1.89549 9.2733L 1.89549 16.7094L 12.5102 16.7094L 12.5102 18.2841L 0 18.2841L 0 8.28815e-15L 12.5102 8.28815e-15L 12.5102 0Z"/>
<path id="path3_fill" fill-rule="evenodd" d="M 13.3559 5.30713C 13.3559 2.47852 12.2186 0 8.16516 0L 0 0L 0 18.2842L 1.89548 18.2842L 1.89548 10.3521L 5.42401 10.3521C 6.76541 10.3521 9.18582 13.1812 12.102 18.2842L 14.464 18.2842C 11.6937 13.6475 9.38995 10.5566 8.0777 10.1191C 12.102 10.1191 13.3559 7.87354 13.3559 5.30713ZM 1.89548 8.71924L 1.89548 1.57471L 8.16516 1.57471C 10.1481 1.57471 11.2563 2.88721 11.2563 5.27832C 11.2563 7.37793 10.1773 8.71924 8.01935 8.71924L 1.89548 8.71924Z"/>
<path id="path4_fill" d="M 1.89549 18.2841L 0 18.2841L 0 0L 2.5662 0C 5.83226 4.81162 9.04001 10.2648 11.927 15.4847L 11.927 0L 13.8516 0L 13.8516 18.2841L 11.6062 18.2841C 8.71923 12.9476 5.42401 7.34865 1.89549 1.92465L 1.89549 18.2841Z"/>
<path id="path5_fill" d="M 1.89549 0L 1.89549 18.2841L 0 18.2841L 0 8.28815e-15L 1.89549 8.28815e-15L 1.89549 0Z"/>
<path id="path6_fill" d="M 8.28181 18.2841L 6.35717 18.2841L 6.35717 1.57471L 0 1.57471L 0 0L 14.5807 0L 14.5807 1.57471L 8.25265 1.57471L 8.25265 18.2841L 8.28181 18.2841Z"/>
<path id="path7_fill" d="M 9.06917 18.2841L 7.14452 18.2841L 7.14452 9.50659C 5.07407 6.47381 2.712 3.32439 0 0L 2.39123 0C 4.43252 2.50787 6.44465 5.30736 8.25265 7.9902C 10.2648 5.45317 12.2769 2.65368 14.0266 0L 16.2137 0C 13.9391 3.26607 11.577 6.44465 9.06917 9.50659L 9.06917 18.2841Z"/>
<path id="path8_fill" d="M 12.3352 0L 12.3352 1.57471L 1.89549 1.57471L 1.89549 8.60259L 9.41911 8.60259L 9.41911 10.1773L 1.89549 10.1773L 1.89549 18.2841L 0 18.2841L 0 8.28815e-15L 12.3352 8.28815e-15L 12.3352 0Z"/>
<path id="path9_fill" fill-rule="evenodd" d="M 12.6852 12.6562C 13.4434 14.6392 14.2016 16.5347 14.9014 18.2842L 17.0302 18.2842C 14.814 13.21 12.2186 6.15283 10.1481 0L 6.91122 0C 4.34503 6.12402 2.09961 12.1602 0 18.2842L 1.86633 18.2842C 2.47821 16.3901 3.11929 14.5254 3.76035 12.6606L 3.76181 12.6562L 12.6852 12.6562ZM 4.34503 11.0522C 5.51147 7.87354 6.76541 4.72412 8.07767 1.45801L 8.83588 1.45801C 9.85651 4.66553 10.9647 7.96094 12.1019 11.0522L 4.34503 11.0522Z"/>
<path id="path10_fill" d="M 8.3693 0C 10.0023 0 12.0728 0.291613 13.4725 0.699872L 12.8601 2.39123C 11.752 1.95381 9.7982 1.69136 8.3693 1.69136C 3.76181 1.69136 2.01213 2.68284 2.01213 9.38995C 2.01213 16.0679 3.73265 17.351 8.3693 17.351C 9.7982 17.351 11.752 17.0885 12.8601 16.6803L 13.4725 18.3716C 12.0436 18.8091 9.97317 19.1007 8.3693 19.1007C 2.712 19.1007 0 16.8844 0 9.41911C 0.0291613 1.92465 2.712 0 8.3693 0Z"/>
<path id="path11_fill" fill-rule="evenodd" d="M 12.656 12.6562C 13.4142 14.6392 14.1724 16.5347 14.8723 18.2842L 17.0302 18.2842C 14.814 13.21 12.2186 6.15283 10.1481 0L 6.91122 0C 4.34503 6.12402 2.09961 12.1602 0 18.2842L 1.86633 18.2842C 2.20773 17.2275 2.55823 16.1797 2.91272 15.1357C 3.19406 14.3076 3.47794 13.4819 3.76181 12.6562L 12.656 12.6562ZM 4.34503 11.0522C 5.51147 7.87354 6.76541 4.72412 8.07767 1.45801L 8.83588 1.45801C 9.85651 4.66553 10.9647 7.96094 12.1019 11.0522L 4.34503 11.0522Z"/>
<path id="path12_fill" d="M 1.89549 0L 1.89549 16.622L 11.3438 16.622L 11.3438 18.2841L 0 18.2841L 0 8.28815e-15L 1.89549 8.28815e-15L 1.89549 0Z"/>
<path id="path13_fill" d="M 6.88477 3.39453L 4.14258 3.39453L 4.14258 11L 3.02344 11L 3.02344 3.39453L 0.287109 3.39453L 0.287109 2.46875L 6.88477 2.46875L 6.88477 3.39453ZM 15.047 11L 13.9162 11L 13.9162 7.05664L 9.61539 7.05664L 9.61539 11L 8.49039 11L 8.49039 2.46875L 9.61539 2.46875L 9.61539 6.13672L 13.9162 6.13672L 13.9162 2.46875L 15.047 2.46875L 15.047 11ZM 22.2073 7.05664L 18.5101 7.05664L 18.5101 10.0801L 22.805 10.0801L 22.805 11L 17.3851 11L 17.3851 2.46875L 22.7464 2.46875L 22.7464 3.39453L 18.5101 3.39453L 18.5101 6.13672L 22.2073 6.13672L 22.2073 7.05664ZM 32.567 7.23242L 28.987 7.23242L 28.987 11L 27.862 11L 27.862 2.46875L 33.1471 2.46875L 33.1471 3.39453L 28.987 3.39453L 28.987 6.3125L 32.567 6.3125L 32.567 7.23242ZM 36.0418 11L 34.9168 11L 34.9168 2.46875L 36.0418 2.46875L 36.0418 11ZM 41.5732 7.54883L 39.5693 7.54883L 39.5693 11L 38.4384 11L 38.4384 2.46875L 41.2627 2.46875C 42.2236 2.46875 42.9619 2.6875 43.4775 3.125C 43.997 3.5625 44.2568 4.19922 44.2568 5.03516C 44.2568 5.56641 44.1123 6.0293 43.8232 6.42383C 43.538 6.81836 43.1396 7.11328 42.6279 7.30859L 44.6318 10.9297L 44.6318 11L 43.4248 11L 41.5732 7.54883ZM 39.5693 6.62891L 41.2978 6.62891C 41.8564 6.62891 42.2998 6.48437 42.6279 6.19531C 42.9599 5.90625 43.1259 5.51953 43.1259 5.03516C 43.1259 4.50781 42.9677 4.10352 42.6513 3.82227C 42.3388 3.54102 41.8857 3.39844 41.292 3.39453L 39.5693 3.39453L 39.5693 6.62891ZM 48.6925 7.19727C 47.7277 6.91992 47.0245 6.58008 46.5831 6.17773C 46.1456 5.77148 45.9269 5.27148 45.9269 4.67773C 45.9269 4.00586 46.1945 3.45117 46.7296 3.01367C 47.2687 2.57227 47.9679 2.35156 48.8273 2.35156C 49.4132 2.35156 49.9347 2.46484 50.3917 2.69141C 50.8527 2.91797 51.2081 3.23047 51.4581 3.62891C 51.712 4.02734 51.839 4.46289 51.839 4.93555L 50.7081 4.93555C 50.7081 4.41992 50.5441 4.01562 50.2159 3.72266C 49.8878 3.42578 49.4249 3.27734 48.8273 3.27734C 48.2726 3.27734 47.839 3.40039 47.5265 3.64648C 47.2179 3.88867 47.0636 4.22656 47.0636 4.66016C 47.0636 5.00781 47.2101 5.30273 47.503 5.54492C 47.7999 5.7832 48.3019 6.00195 49.0089 6.20117C 49.7198 6.40039 50.2745 6.62109 50.673 6.86328C 51.0753 7.10156 51.3722 7.38086 51.5636 7.70117C 51.7589 8.02148 51.8566 8.39844 51.8566 8.83203C 51.8566 9.52344 51.587 10.0781 51.048 10.4961C 50.5089 10.9102 49.7882 11.1172 48.8859 11.1172C 48.2999 11.1172 47.753 11.0059 47.2452 10.7832C 46.7374 10.5566 46.3448 10.248 46.0675 9.85742C 45.7941 9.4668 45.6573 9.02344 45.6573 8.52734L 46.7882 8.52734C 46.7882 9.04297 46.9777 9.45117 47.3566 9.75195C 47.7394 10.0488 48.2491 10.1973 48.8859 10.1973C 49.4796 10.1973 49.9347 10.0762 50.2511 9.83398C 50.5675 9.5918 50.7257 9.26172 50.7257 8.84375C 50.7257 8.42578 50.5792 8.10352 50.2863 7.87695C 49.9933 7.64648 49.462 7.41992 48.6925 7.19727ZM 59.5384 3.39453L 56.7962 3.39453L 56.7962 11L 55.677 11L 55.677 3.39453L 52.9407 3.39453L 52.9407 2.46875L 59.5384 2.46875L 59.5384 3.39453ZM 64.2262 11L 64.2262 2.46875L 67.0152 2.46875C 67.941 2.46875 68.6363 2.66016 69.1012 3.04297C 69.5699 3.42578 69.8043 3.99219 69.8043 4.74219C 69.8043 5.14062 69.691 5.49414 69.4645 5.80273C 69.2379 6.10742 68.9293 6.34375 68.5387 6.51172C 68.9996 6.64062 69.3629 6.88672 69.6285 7.25C 69.898 7.60937 70.0328 8.03906 70.0328 8.53906C 70.0328 9.30469 69.7848 9.90625 69.2887 10.3438C 68.7926 10.7813 68.0914 11 67.1852 11L 64.2262 11ZM 65.3512 7.00977L 65.3512 10.0801L 67.2086 10.0801C 67.732 10.0801 68.1441 9.94531 68.4449 9.67578C 68.7496 9.40234 68.902 9.02734 68.902 8.55078C 68.902 7.52344 68.3434 7.00977 67.2262 7.00977L 65.3512 7.00977ZM 65.3512 6.10742L 67.0504 6.10742C 67.5426 6.10742 67.9352 5.98438 68.2281 5.73828C 68.525 5.49219 68.6734 5.1582 68.6734 4.73633C 68.6734 4.26758 68.5367 3.92773 68.2633 3.7168C 67.9898 3.50195 67.5738 3.39453 67.0152 3.39453L 65.3512 3.39453L 65.3512 6.10742ZM 73.1736 10.0801L 77.2166 10.0801L 77.2166 11L 72.0427 11L 72.0427 2.46875L 73.1736 2.46875L 73.1736 10.0801ZM 85.0155 7.00977C 85.0155 7.8457 84.8749 8.57617 84.5937 9.20117C 84.3124 9.82227 83.914 10.2969 83.3984 10.625C 82.8827 10.9531 82.2812 11.1172 81.5937 11.1172C 80.9218 11.1172 80.3261 10.9531 79.8066 10.625C 79.287 10.293 78.8827 9.82227 78.5937 9.21289C 78.3085 8.59961 78.162 7.89062 78.1542 7.08594L 78.1542 6.4707C 78.1542 5.65039 78.2968 4.92578 78.582 4.29688C 78.8671 3.66797 79.2695 3.1875 79.789 2.85547C 80.3124 2.51953 80.9101 2.35156 81.582 2.35156C 82.2655 2.35156 82.8671 2.51758 83.3866 2.84961C 83.9101 3.17773 84.3124 3.65625 84.5937 4.28516C 84.8749 4.91016 85.0155 5.63867 85.0155 6.4707L 85.0155 7.00977ZM 83.8964 6.45898C 83.8964 5.44727 83.6933 4.67188 83.287 4.13281C 82.8808 3.58984 82.3124 3.31836 81.582 3.31836C 80.871 3.31836 80.3105 3.58984 79.9003 4.13281C 79.4941 4.67188 79.2851 5.42188 79.2734 6.38281L 79.2734 7.00977C 79.2734 7.99023 79.4784 8.76172 79.8886 9.32422C 80.3027 9.88281 80.871 10.1621 81.5937 10.1621C 82.3202 10.1621 82.8827 9.89844 83.2812 9.37109C 83.6796 8.83984 83.8847 8.08008 83.8964 7.0918L 83.8964 6.45898ZM 93.3184 8.29297C 93.213 9.19531 92.879 9.89258 92.3165 10.3848C 91.7579 10.873 91.0137 11.1172 90.0841 11.1172C 89.0762 11.1172 88.2677 10.7559 87.6583 10.0332C 87.0528 9.31055 86.7501 8.34375 86.7501 7.13281L 86.7501 6.3125C 86.7501 5.51953 86.8907 4.82227 87.172 4.2207C 87.4571 3.61914 87.8595 3.1582 88.379 2.83789C 88.8985 2.51367 89.5001 2.35156 90.1837 2.35156C 91.0899 2.35156 91.8165 2.60547 92.3634 3.11328C 92.9102 3.61719 93.2286 4.31641 93.3184 5.21094L 92.1876 5.21094C 92.0899 4.53125 91.877 4.03906 91.5489 3.73438C 91.2247 3.42969 90.7696 3.27734 90.1837 3.27734C 89.4649 3.27734 88.9005 3.54297 88.4903 4.07422C 88.0841 4.60547 87.8809 5.36133 87.8809 6.3418L 87.8809 7.16797C 87.8809 8.09375 88.0743 8.83008 88.461 9.37695C 88.8477 9.92383 89.3887 10.1973 90.0841 10.1973C 90.7091 10.1973 91.1876 10.0566 91.5196 9.77539C 91.8555 9.49023 92.0782 8.99609 92.1876 8.29297L 93.3184 8.29297ZM 97.3674 7.0332L 96.3245 8.11719L 96.3245 11L 95.1995 11L 95.1995 2.46875L 96.3245 2.46875L 96.3245 6.6875L 100.115 2.46875L 101.475 2.46875L 98.1174 6.23633L 101.739 11L 100.391 11L 97.3674 7.0332ZM 109.151 8.29297C 109.045 9.19531 108.711 9.89258 108.149 10.3848C 107.59 10.873 106.846 11.1172 105.916 11.1172C 104.909 11.1172 104.1 10.7559 103.491 10.0332C 102.885 9.31055 102.582 8.34375 102.582 7.13281L 102.582 6.3125C 102.582 5.51953 102.723 4.82227 103.004 4.2207C 103.289 3.61914 103.692 3.1582 104.211 2.83789C 104.731 2.51367 105.332 2.35156 106.016 2.35156C 106.922 2.35156 107.649 2.60547 108.196 3.11328C 108.743 3.61719 109.061 4.31641 109.151 5.21094L 108.02 5.21094C 107.922 4.53125 107.709 4.03906 107.381 3.73438C 107.057 3.42969 106.602 3.27734 106.016 3.27734C 105.297 3.27734 104.733 3.54297 104.323 4.07422C 103.916 4.60547 103.713 5.36133 103.713 6.3418L 103.713 7.16797C 103.713 8.09375 103.907 8.83008 104.293 9.37695C 104.68 9.92383 105.221 10.1973 105.916 10.1973C 106.541 10.1973 107.02 10.0566 107.352 9.77539C 107.688 9.49023 107.911 8.99609 108.02 8.29297L 109.151 8.29297ZM 117.588 11L 116.458 11L 116.458 7.05664L 112.157 7.05664L 112.157 11L 111.032 11L 111.032 2.46875L 112.157 2.46875L 112.157 6.13672L 116.458 6.13672L 116.458 2.46875L 117.588 2.46875L 117.588 11ZM 124.743 8.77344L 121.169 8.77344L 120.366 11L 119.206 11L 122.464 2.46875L 123.448 2.46875L 126.712 11L 125.557 11L 124.743 8.77344ZM 121.509 7.84766L 124.409 7.84766L 122.956 3.85742L 121.509 7.84766ZM 129.407 11L 128.282 11L 128.282 2.46875L 129.407 2.46875L 129.407 11ZM 138.366 11L 137.235 11L 132.94 4.42578L 132.94 11L 131.81 11L 131.81 2.46875L 132.94 2.46875L 137.247 9.07227L 137.247 2.46875L 138.366 2.46875L 138.366 11ZM 142.79 7.81836L 139.931 7.81836L 139.931 6.93359L 142.79 6.93359L 142.79 7.81836ZM 146.874 7.19727C 145.91 6.91992 145.206 6.58008 144.765 6.17773C 144.327 5.77148 144.109 5.27148 144.109 4.67773C 144.109 4.00586 144.376 3.45117 144.911 3.01367C 145.451 2.57227 146.15 2.35156 147.009 2.35156C 147.595 2.35156 148.117 2.46484 148.574 2.69141C 149.035 2.91797 149.39 3.23047 149.64 3.62891C 149.894 4.02734 150.021 4.46289 150.021 4.93555L 148.89 4.93555C 148.89 4.41992 148.726 4.01562 148.398 3.72266C 148.07 3.42578 147.607 3.27734 147.009 3.27734C 146.454 3.27734 146.021 3.40039 145.708 3.64648C 145.4 3.88867 145.245 4.22656 145.245 4.66016C 145.245 5.00781 145.392 5.30273 145.685 5.54492C 145.982 5.7832 146.484 6.00195 147.191 6.20117C 147.902 6.40039 148.456 6.62109 148.855 6.86328C 149.257 7.10156 149.554 7.38086 149.745 7.70117C 149.941 8.02148 150.038 8.39844 150.038 8.83203C 150.038 9.52344 149.769 10.0781 149.23 10.4961C 148.691 10.9102 147.97 11.1172 147.068 11.1172C 146.482 11.1172 145.935 11.0059 145.427 10.7832C 144.919 10.5566 144.527 10.248 144.249 9.85742C 143.976 9.4668 143.839 9.02344 143.839 8.52734L 144.97 8.52734C 144.97 9.04297 145.16 9.45117 145.538 9.75195C 145.921 10.0488 146.431 10.1973 147.068 10.1973C 147.661 10.1973 148.117 10.0762 148.433 9.83398C 148.749 9.5918 148.908 9.26172 148.908 8.84375C 148.908 8.42578 148.761 8.10352 148.468 7.87695C 148.175 7.64648 147.644 7.41992 146.874 7.19727ZM 156.648 7.05664L 152.951 7.05664L 152.951 10.0801L 157.246 10.0801L 157.246 11L 151.826 11L 151.826 2.46875L 157.187 2.46875L 157.187 3.39453L 152.951 3.39453L 152.951 6.13672L 156.648 6.13672L 156.648 7.05664ZM 165.261 8.29297C 165.156 9.19531 164.822 9.89258 164.259 10.3848C 163.701 10.873 162.957 11.1172 162.027 11.1172C 161.019 11.1172 160.211 10.7559 159.601 10.0332C 158.996 9.31055 158.693 8.34375 158.693 7.13281L 158.693 6.3125C 158.693 5.51953 158.834 4.82227 159.115 4.2207C 159.4 3.61914 159.802 3.1582 160.322 2.83789C 160.841 2.51367 161.443 2.35156 162.127 2.35156C 163.033 2.35156 163.759 2.60547 164.306 3.11328C 164.853 3.61719 165.172 4.31641 165.261 5.21094L 164.131 5.21094C 164.033 4.53125 163.82 4.03906 163.492 3.73438C 163.168 3.42969 162.713 3.27734 162.127 3.27734C 161.408 3.27734 160.843 3.54297 160.433 4.07422C 160.027 4.60547 159.824 5.36133 159.824 6.3418L 159.824 7.16797C 159.824 8.09375 160.017 8.83008 160.404 9.37695C 160.791 9.92383 161.332 10.1973 162.027 10.1973C 162.652 10.1973 163.131 10.0566 163.463 9.77539C 163.799 9.49023 164.021 8.99609 164.131 8.29297L 165.261 8.29297ZM 173.148 2.46875L 173.148 8.26953C 173.144 9.07422 172.89 9.73242 172.387 10.2441C 171.887 10.7559 171.207 11.043 170.348 11.1055L 170.049 11.1172C 169.115 11.1172 168.371 10.8652 167.816 10.3613C 167.262 9.85742 166.98 9.16406 166.973 8.28125L 166.973 2.46875L 168.086 2.46875L 168.086 8.24609C 168.086 8.86328 168.256 9.34375 168.596 9.6875C 168.935 10.0273 169.42 10.1973 170.049 10.1973C 170.685 10.1973 171.172 10.0273 171.508 9.6875C 171.848 9.34766 172.017 8.86914 172.017 8.25195L 172.017 2.46875L 173.148 2.46875ZM 178.393 7.54883L 176.389 7.54883L 176.389 11L 175.258 11L 175.258 2.46875L 178.082 2.46875C 179.043 2.46875 179.781 2.6875 180.297 3.125C 180.816 3.5625 181.076 4.19922 181.076 5.03516C 181.076 5.56641 180.932 6.0293 180.643 6.42383C 180.357 6.81836 179.959 7.11328 179.447 7.30859L 181.451 10.9297L 181.451 11L 180.244 11L 178.393 7.54883ZM 176.389 6.62891L 178.117 6.62891C 178.676 6.62891 179.119 6.48437 179.447 6.19531C 179.779 5.90625 179.945 5.51953 179.945 5.03516C 179.945 4.50781 179.787 4.10352 179.471 3.82227C 179.158 3.54102 178.705 3.39844 178.111 3.39453L 176.389 3.39453L 176.389 6.62891ZM 187.82 7.05664L 184.123 7.05664L 184.123 10.0801L 188.418 10.0801L 188.418 11L 182.998 11L 182.998 2.46875L 188.36 2.46875L 188.36 3.39453L 184.123 3.39453L 184.123 6.13672L 187.82 6.13672L 187.82 7.05664ZM 190.159 11L 190.159 2.46875L 192.567 2.46875C 193.309 2.46875 193.965 2.63281 194.535 2.96094C 195.106 3.28906 195.545 3.75586 195.854 4.36133C 196.166 4.9668 196.325 5.66211 196.328 6.44727L 196.328 6.99219C 196.328 7.79687 196.172 8.50195 195.86 9.10742C 195.551 9.71289 195.108 10.1777 194.53 10.502C 193.955 10.8262 193.285 10.9922 192.52 11L 190.159 11ZM 191.284 3.39453L 191.284 10.0801L 192.467 10.0801C 193.334 10.0801 194.008 9.81055 194.489 9.27148C 194.973 8.73242 195.215 7.96484 195.215 6.96875L 195.215 6.4707C 195.215 5.50195 194.987 4.75 194.53 4.21484C 194.076 3.67578 193.432 3.40234 192.596 3.39453L 191.284 3.39453ZM 206.395 7.23242L 202.815 7.23242L 202.815 11L 201.69 11L 201.69 2.46875L 206.975 2.46875L 206.975 3.39453L 202.815 3.39453L 202.815 6.3125L 206.395 6.3125L 206.395 7.23242ZM 215.225 7.00977C 215.225 7.8457 215.085 8.57617 214.804 9.20117C 214.522 9.82227 214.124 10.2969 213.608 10.625C 213.093 10.9531 212.491 11.1172 211.804 11.1172C 211.132 11.1172 210.536 10.9531 210.016 10.625C 209.497 10.293 209.093 9.82227 208.804 9.21289C 208.518 8.59961 208.372 7.89062 208.364 7.08594L 208.364 6.4707C 208.364 5.65039 208.507 4.92578 208.792 4.29688C 209.077 3.66797 209.479 3.1875 209.999 2.85547C 210.522 2.51953 211.12 2.35156 211.792 2.35156C 212.475 2.35156 213.077 2.51758 213.596 2.84961C 214.12 3.17773 214.522 3.65625 214.804 4.28516C 215.085 4.91016 215.225 5.63867 215.225 6.4707L 215.225 7.00977ZM 214.106 6.45898C 214.106 5.44727 213.903 4.67188 213.497 4.13281C 213.091 3.58984 212.522 3.31836 211.792 3.31836C 211.081 3.31836 210.52 3.58984 210.11 4.13281C 209.704 4.67188 209.495 5.42188 209.483 6.38281L 209.483 7.00977C 209.483 7.99023 209.688 8.76172 210.098 9.32422C 210.512 9.88281 211.081 10.1621 211.804 10.1621C 212.53 10.1621 213.093 9.89844 213.491 9.37109C 213.889 8.83984 214.095 8.08008 214.106 7.0918L 214.106 6.45898ZM 220.382 7.54883L 218.378 7.54883L 218.378 11L 217.247 11L 217.247 2.46875L 220.071 2.46875C 221.032 2.46875 221.77 2.6875 222.286 3.125C 222.806 3.5625 223.065 4.19922 223.065 5.03516C 223.065 5.56641 222.921 6.0293 222.632 6.42383C 222.347 6.81836 221.948 7.11328 221.436 7.30859L 223.44 10.9297L 223.44 11L 222.233 11L 220.382 7.54883ZM 218.378 6.62891L 220.106 6.62891C 220.665 6.62891 221.108 6.48437 221.436 6.19531C 221.769 5.90625 221.935 5.51953 221.935 5.03516C 221.935 4.50781 221.776 4.10352 221.46 3.82227C 221.147 3.54102 220.694 3.39844 220.101 3.39453L 218.378 3.39453L 218.378 6.62891ZM 229.81 7.05664L 226.112 7.05664L 226.112 10.0801L 230.407 10.0801L 230.407 11L 224.987 11L 224.987 2.46875L 230.349 2.46875L 230.349 3.39453L 226.112 3.39453L 226.112 6.13672L 229.81 6.13672L 229.81 7.05664ZM 234.931 5.73828L 236.976 2.46875L 238.3 2.46875L 235.605 6.69922L 238.365 11L 237.029 11L 234.931 7.67188L 232.822 11L 231.491 11L 234.257 6.69922L 231.556 2.46875L 232.874 2.46875L 234.931 5.73828ZM 2.44336 16.4688L 5.23242 23.4297L 8.02148 16.4688L 9.48047 16.4688L 9.48047 25L 8.35547 25L 8.35547 21.6777L 8.46094 18.0918L 5.66016 25L 4.79883 25L 2.00391 18.1094L 2.11523 21.6777L 2.11523 25L 0.990234 25L 0.990234 16.4688L 2.44336 16.4688ZM 16.6232 22.7734L 13.049 22.7734L 12.2463 25L 11.0861 25L 14.3439 16.4688L 15.3283 16.4688L 18.592 25L 17.4377 25L 16.6232 22.7734ZM 13.3888 21.8477L 16.2892 21.8477L 14.8361 17.8574L 13.3888 21.8477ZM 23.2093 21.5488L 21.2054 21.5488L 21.2054 25L 20.0745 25L 20.0745 16.4688L 22.8988 16.4688C 23.8597 16.4688 24.598 16.6875 25.1136 17.125C 25.6331 17.5625 25.8929 18.1992 25.8929 19.0352C 25.8929 19.5664 25.7484 20.0293 25.4593 20.4238C 25.1741 20.8184 24.7757 21.1133 24.264 21.3086L 26.2679 24.9297L 26.2679 25L 25.0609 25L 23.2093 21.5488ZM 21.2054 20.6289L 22.9339 20.6289C 23.4925 20.6289 23.9359 20.4844 24.264 20.1953C 24.596 19.9063 24.762 19.5195 24.762 19.0352C 24.762 18.5078 24.6038 18.1035 24.2874 17.8223C 23.9749 17.541 23.5218 17.3984 22.928 17.3945L 21.2054 17.3945L 21.2054 20.6289ZM 29.9829 21.0332L 28.9399 22.1172L 28.9399 25L 27.8149 25L 27.8149 16.4688L 28.9399 16.4688L 28.9399 20.6875L 32.7309 16.4688L 34.0903 16.4688L 30.7329 20.2363L 34.354 25L 33.0063 25L 29.9829 21.0332ZM 40.5006 21.0566L 36.8034 21.0566L 36.8034 24.0801L 41.0983 24.0801L 41.0983 25L 35.6784 25L 35.6784 16.4688L 41.0397 16.4688L 41.0397 17.3945L 36.8034 17.3945L 36.8034 20.1367L 40.5006 20.1367L 40.5006 21.0566ZM 48.8504 17.3945L 46.1082 17.3945L 46.1082 25L 44.9891 25L 44.9891 17.3945L 42.2527 17.3945L 42.2527 16.4688L 48.8504 16.4688L 48.8504 17.3945ZM 51.581 21.6602L 51.581 25L 50.456 25L 50.456 16.4688L 53.6025 16.4688C 54.5361 16.4688 55.2666 16.707 55.7939 17.1836C 56.3252 17.6602 56.5908 18.291 56.5908 19.0762C 56.5908 19.9043 56.331 20.543 55.8115 20.9922C 55.2959 21.4375 54.5556 21.6602 53.5908 21.6602L 51.581 21.6602ZM 51.581 20.7402L 53.6025 20.7402C 54.2041 20.7402 54.665 20.5996 54.9853 20.3184C 55.3056 20.0332 55.4658 19.623 55.4658 19.0879C 55.4658 18.5801 55.3056 18.1738 54.9853 17.8691C 54.665 17.5645 54.2255 17.4062 53.667 17.3945L 51.581 17.3945L 51.581 20.7402ZM 59.4972 24.0801L 63.5402 24.0801L 63.5402 25L 58.3663 25L 58.3663 16.4688L 59.4972 16.4688L 59.4972 24.0801ZM 69.9915 22.7734L 66.4173 22.7734L 65.6145 25L 64.4544 25L 67.7122 16.4688L 68.6966 16.4688L 71.9602 25L 70.8059 25L 69.9915 22.7734ZM 66.7571 21.8477L 69.6575 21.8477L 68.2044 17.8574L 66.7571 21.8477ZM 79.6537 22.293C 79.5483 23.1953 79.2143 23.8926 78.6518 24.3848C 78.0932 24.873 77.3491 25.1172 76.4194 25.1172C 75.4116 25.1172 74.603 24.7559 73.9936 24.0332C 73.3881 23.3105 73.0854 22.3437 73.0854 21.1328L 73.0854 20.3125C 73.0854 19.5195 73.226 18.8223 73.5073 18.2207C 73.7924 17.6191 74.1948 17.1582 74.7143 16.8379C 75.2338 16.5137 75.8354 16.3516 76.519 16.3516C 77.4252 16.3516 78.1518 16.6055 78.6987 17.1133C 79.2455 17.6172 79.5639 18.3164 79.6537 19.2109L 78.5229 19.2109C 78.4252 18.5312 78.2123 18.0391 77.8842 17.7344C 77.56 17.4297 77.1049 17.2773 76.519 17.2773C 75.8002 17.2773 75.2358 17.543 74.8256 18.0742C 74.4194 18.6055 74.2162 19.3613 74.2162 20.3418L 74.2162 21.168C 74.2162 22.0938 74.4096 22.8301 74.7963 23.377C 75.183 23.9238 75.7241 24.1973 76.4194 24.1973C 77.0444 24.1973 77.5229 24.0566 77.8549 23.7754C 78.1909 23.4902 78.4135 22.9961 78.5229 22.293L 79.6537 22.293ZM 86.357 21.0566L 82.6598 21.0566L 82.6598 24.0801L 86.9547 24.0801L 86.9547 25L 81.5348 25L 81.5348 16.4688L 86.8961 16.4688L 86.8961 17.3945L 82.6598 17.3945L 82.6598 20.1367L 86.357 20.1367L 86.357 21.0566Z"/>
</defs>
</svg>
